/* XPM */
static char *oww_xpm[]={
"32 32 11 1",
"h c #4a3c33",
". c #728b99",
"g c #7e6453",
"d c #8a796d",
"i c #9aa7ab",
"# c #af8869",
"c c #c6a88c",
"f c #d2cbc2",
"a c #e6c99a",
"b c #f9e4c0",
"e c #faf1df",
"..................#.............",
"................#ab.............",
"...............cbbb.............",
"............d.bbbbe.............",
"...........bbbabbbeac#..........",
"..........bbbba#bbbffaa.........",
"..........bbbbba#abc#fbf........",
"..........bbbebcb#gbbbf.........",
"..........abbba.bb.fbff.........",
"...........db...bba.ff..........",
"...............caae.............",
".............cbbeebba...........",
"..........bbeabhhebhfc..........",
"......cbbbbbaabhheehfc..........",
"eeeeebaebbbedagheghbgc..........",
"beeebbabbbbababbeeeefc..........",
"..........bbeabbeebbbc..........",
"...........g.iabbbeac...........",
"...............abbbc............",
"...............gbbf.....bbbbb...",
"................dbc.....ebhgb...",
"................be.....eebhhb...",
"................be.....eebhhb...",
"................ae....ebebbbb...",
"...abbbbbbbbbbbbbbbbbbbeeeeee...",
".................g....eeebbbb...",
".......................eebbbb...",
".......................bbbchb...",
"........................bbbbb...",
"........................bbbbf...",
".........................bbbf...",
"................................"};
